
<svg width="174px" height="175px" viewBox="0 0 174 175" version="1.1" xmlns="http://www.w3.org/2000/svg" xmlns:xlink="http://www.w3.org/1999/xlink">
    <g id="Page-1" stroke="none" stroke-width="1" fill="none" fill-rule="evenodd">
        <g id="Artboard" fill="#000000">
            <g id="logo" transform="translate(-1.000000, -2.000000)">
                <g id="center" transform="translate(79.000000, 74.000000)">
                    <circle id="Oval" cx="8" cy="8" r="8"></circle>
                </g>
                <g id="bolts">
                    <g id="bolts-(right)" transform="translate(92.411279, 0.111477)">
                        <polygon id="Path-2" points="26.905526 0.0253915545 17.5961059 31.6821855 23.6667478 34.6537086 0.0907491429 68.2379144 9.38523849 36.6166907 3.40616579 33.618932"></polygon>
                        <polygon id="Path-2" points="26.9251427 -1.13686838e-13 17.6157225 31.6567939 23.6863644 34.6283171 0.11036582 68.2125228 9.40485516 36.5912991 3.42578247 33.5935404"></polygon>
                        <polygon id="Path-2-Copy" transform="translate(41.377900, 60.361435) rotate(44.000000) translate(-41.377900, -60.361435) " points="54.6805279 26.4867211 46.382455 58.2998947 54.5728755 62.1085585 28.0752718 94.2361489 36.3582468 62.4581918 28.2830071 58.633094"></polygon>
                        <polygon id="Path-2-Copy-2" transform="translate(45.792533, 86.893013) rotate(74.000000) translate(-45.792533, -86.893013) " points="59.2345831 53.1367205 50.3640533 84.6526822 57.5193441 88.0185702 32.3504822 120.649305 41.2059026 89.1684928 34.1544169 85.7814075"></polygon>
                    </g>
                    <g id="bolts-(left)" transform="translate(41.588721, 55.000000) scale(-1, 1) translate(-41.588721, -55.000000) translate(0.588721, 0.000000)">
                        <polygon id="Path-2" points="26.905526 0.0253915545 17.5961059 31.6821855 23.6667478 34.6537086 0.0907491429 68.2379144 9.38523849 36.6166907 3.40616579 33.618932"></polygon>
                        <polygon id="Path-2" points="26.9251427 -1.13686838e-13 17.6157225 31.6567939 23.6863644 34.6283171 0.11036582 68.2125228 9.40485516 36.5912991 3.42578247 33.5935404"></polygon>
                        <polygon id="Path-2-Copy" transform="translate(41.377900, 60.361435) rotate(44.000000) translate(-41.377900, -60.361435) " points="54.6805279 26.4867211 46.382455 58.2998947 54.5728755 62.1085585 28.0752718 94.2361489 36.3582468 62.4581918 28.2830071 58.633094"></polygon>
                        <polygon id="Path-2-Copy-2" transform="translate(45.792533, 86.893013) rotate(74.000000) translate(-45.792533, -86.893013) " points="59.2345831 53.1367205 50.3640533 84.6526822 57.5193441 88.0185702 32.3504822 120.649305 41.2059026 89.1684928 34.1544169 85.7814075"></polygon>
                    </g>
                </g>
                <g id="legs" transform="translate(47.000000, 92.000000)">
                    <polyline id="Shape" points="40 23.3938494 12.4525992 84.8894668 0.106946385 84.8894668 40 0.10909476 40 0.11053316 79.8930536 84.8909052 67.5474008 84.8909052 40 23.3952878"></polyline>
                </g>
                <g id="supports" transform="translate(63.000000, 125.000000)">
                    <g id="cross-3" transform="translate(0.000000, 26.378619)">
                        <polygon id="Rectangle" points="10.6739733 1.42108547e-14 47.6264572 20.6503736 48.9635282 23.9850416 9.77752294 2.18476572"></polygon>
                        <polygon id="Rectangle" transform="translate(19.593003, 11.992521) scale(-1, 1) translate(-19.593003, -11.992521) " points="0.896450384 1.42108547e-14 37.8489342 20.6503736 39.1860052 23.9850416 -5.68434189e-14 2.18476572"></polygon>
                    </g>
                    <g id="cross-2" transform="translate(11.800459, 9.765702)">
                        <polygon id="Path-3" points="-1.42108547e-14 14.0223673 1.49891204 10.3577937 19.1256881 -5.68434189e-14 20.1101623 1.99606432"></polygon>
                        <polygon id="Path-3" transform="translate(15.449577, 7.011184) scale(-1, 1) translate(-15.449577, -7.011184) " points="5.39449541 14.0223673 6.89340746 10.3577937 24.5201835 -7.10542736e-14 25.5046577 1.99606432"></polygon>
                    </g>
                    <g id="cross-1" transform="translate(19.442661, 0.000000)">
                        <polygon id="Path-4" points="-3.55271368e-14 6.04471063 1.12346122 3.33990631 7.72957839 -1.13686838e-13 8.51372954 1.70831918"></polygon>
                        <polygon id="Path-4" transform="translate(5.942645, 3.022355) scale(-1, 1) translate(-5.942645, -3.022355) " points="1.68577982 6.04471063 2.80924103 3.33990631 9.4153582 -1.13686838e-13 10.1995094 1.70831918"></polygon>
                    </g>
                </g>
            </g>
        </g>
    </g>
</svg>